<svg xmlns="http://www.w3.org/2000/svg" version="1.1" width="600px" height="600px" viewBox="0 0 200 200" style="overflow:hidden!important;"><g id="svga-group-wrapper"><g id="svga-group-backs-single"></g><g id="svga-group-humanwrap-move" transform="matrix(1,0,0,1,0,0)"><g id="svga-group-humanwrap" transform="matrix(1.0500003000000002,0,0,1.0500003000000002,-4.997529832411217,-6.018035757045766)"><g id="svga-group-hair-back-move" transform="matrix(1,0,0,1,0,0)"><g id="svga-group-hair-back" transform="matrix(0.9999999,0,0,0.9999999,0,0)"></g></g><g id="svga-group-humanbody-back"><path id="SvgjsPath5551" d="m170 180.3-27.3-6.9-18-9.9-1.5-28.2H76.8l-1.5 28.2-18 9.9-27.3 6.9-9.1 19.7-3 20h164.2l-3-20z" fill="#d79468" stroke-width="none" opacity="1" stroke="none"></path><path id="SvgjsPath5552" d="m76.8 135.3-1.5 28.2-18 9.9-27.3 6.9-9.1 19.7-3 20h14.6v-20l2.7-17.7 23.8-6.4 24.7-8.3 3.5-32.3z" fill="#b86934" stroke-width="none" opacity="1" stroke="none"></path></g><g id="svga-group-chinshadow-single"><path id="SvgjsPath10702" d="m121.5 149.1 2.2-3.8-.5-10H76.8l-.8 15.9 13.8 9.6h14.8z" fill="#a9561f" stroke-width="none" opacity="1" stroke="none"></path></g><g id="svga-group-humanbody-front"><path id="SvgjsPath5553" d="m92.8 168.3 2 7.9 6.9 4.6s-8.5-3-8.7-3.6c-.2-.6-.2-8.9-.2-8.9z" fill="#b86934" stroke-width="none" opacity="1" stroke="none"></path></g><g id="svga-group-clothes-single"><path id="SvgjsPath10237" d="m179.6 200-8.5-20-28.8-7.4-9.5-4.8-.1-1.5-8.3-8.8.2 3.5-1.1 12.2-7.6 7.9-9.1 1.9-2.1 5.7-2.1 2.9-7.5-9.3-10.7-1.2-5.8-7.3-3.2-13.1.2-3.2-8.3 8.8-.1 1.5-9.5 4.8L29 180l-8.6 20-3.4 20h165.9z" fill="#386e77" stroke-width="none" opacity="1" stroke="none"></path><path id="SvgjsPath10238" d="m29.9 200.7 3.6-10.8 24.9-9.6 7.2-3.2.3-2 11.5-5.7h.1l-2.1-8.7.2-3.2-8.3 8.8-.1 1.5-9.5 4.8L29 180l-8.6 20-3.4 20h12.6z" fill="#265e68" stroke-width="none" opacity="1" stroke="none"></path><path id="SvgjsPath10239" d="m132.8 167.8 2.7 19.2 1.2 8.7L125 188l-5.2-5.3-4.2-1.6 4 3.4-6.4 2.6-7.9 1.5 7-.6-8.7 11.8V220h1.7l-.8-19.8 7.8-12 1-.1 7.1-2.8 4.2 4.5 13.3 8.1-1.6-12.4-3.5-17.7zm-33.1 29.7 2.9-5.9-3.5 5-6.1-8.7-12.5-3.4 3.8-3.3-4.2 1.6L75 188l-11.7 7.7 1.2-8.7 2.7-19.2-3.4 17.7-1.6 12.4 13.3-8.1 4.6-4.9.5-.5 11.8 4.3 6.1 8.6-1.2.7 1.1 21.9h1.5l-1.3-21 1.1-1.4zm10.5-12.8-1.5-.8-.9 1.4 1.4 1 1-1.6zm-9.3 13.3 1.4 1 1-1.7-1.5-.8-.9 1.5zm-.8 18.6 1.4 1 1-1.7-1.5-.8-.9 1.5zm-69.7-35.3 6.8 21 1.2 17.7h1.4l-1.1-17.8-8.3-20.9zm130.5 19.3-1.2 19.4h1.9l1-19.2 7-18.2-8.7 18z" fill="#184f58" stroke-width="none" opacity="1" stroke="none"></path><path id="SvgjsPath10240" d="m127 162.5-1.1-1.4v13l-5.3 8 4.8 4.6s2.3-11.1 2.3-11.8c0-.7-.7-12.4-.7-12.4zm-53.2.1.5-2.3-1.8 2.5 1.2 13.4 2.1 9.5 3.8-4.3-3.9-6.1-1.9-12.7z" fill="#4d7e86" stroke-width="none" opacity="1" stroke="none"></path></g><g id="svga-group-head" transform="matrix(1,0,0,1,0,0)"><g id="svga-group-ears-left-move" transform="matrix(1,0,0,1,0,0)"><g id="svga-group-ears-left"><path id="SvgjsPath6885" d="m58.4 92.2-5-3.9-4.1 14.6 2.7 10.2 5.7 5.1 3.6-.9 2.8-7.6-1.4-12.6z" fill="#d79468" stroke-width="none" opacity="1" stroke="none"></path><path id="SvgjsPath6886" d="m51.4 102 3.2-6.3 2.8 5.5.5 8s-3.1-.7-3.2-1c0-.3 1.2-6.5 1.1-6.8-.1-.3-1-3.6-1.2-3.5-.1.1-3.2 4.1-3.2 4.1z" fill="#b86934" stroke-width="none" opacity="1" stroke="none"></path><path id="SvgjsPath6887" d="m60 113.6-1.4-16.5-5.2-8.8 5.9 2.8 3.4 6 1.4 12.6-2.8 7.6-3.6.9-5.7-5.1s5.4 2.1 5.5 2.1c.3.1 2.5-1.6 2.5-1.6z" fill="#c87d4d" stroke-width="none" opacity="1" stroke="none"></path></g></g><g id="svga-group-ears-right-move" transform="matrix(1,0,0,1,0,0)"><g id="svga-group-ears-right"><path id="SvgjsPath6888" d="m141.6 92.2 5-3.9 4.1 14.6-2.7 10.2-5.7 5.1-3.6-.9-2.8-7.6 1.4-12.6z" fill="#d79468" stroke-width="none" opacity="1" stroke="none"></path><path id="SvgjsPath6889" d="m148.6 102-3.2-6.3-2.8 5.5-.5 8s3.1-.7 3.2-1-1.2-6.5-1.1-6.8c.1-.3 1-3.6 1.2-3.5.1.1 3.2 4.1 3.2 4.1z" fill="#b86934" stroke-width="none" opacity="1" stroke="none"></path><path id="SvgjsPath6890" d="m140 113.6 1.4-16.5 5.2-8.8-5.9 2.8-3.4 6-1.4 12.6 2.8 7.6 3.6.9 5.7-5.1s-5.4 2.1-5.5 2.1c-.3.1-2.5-1.6-2.5-1.6z" fill="#c87d4d" stroke-width="none" opacity="1" stroke="none"></path></g></g><g id="svga-group-faceshape-wrap" transform="matrix(0.9999999,0,0,0.9999999,0.000010004999538182346,0.000009669999684547292)"><g id="svga-group-faceshape-single"><path id="SvgjsPath10692" d="M138.1 60c-6.9-11.6-19.7-19.5-19.7-19.5-7.2-1.5-18.4-2.3-18.4-2.3s-11.1.8-18.4 2.3c0 0-12.8 7.9-19.7 19.5 0 0-5.1 14.5-5.3 24.8l4.9 33.9 14.2 24.8 16.9 11.7h14.9l16.9-11.7 14.2-24.8 4.9-33.9c-.3-10.3-5.4-24.8-5.4-24.8z" fill="#d79468" stroke-width="none" opacity="1" stroke="none"></path><path id="SvgjsPath10693" d="m92.7 152.7-14.6-12.3s-11.4-20.9-11.8-21.7c-.4-.9-5-34.3-5-34.3.2-4.8 4.5-21.5 5-22.2 2.1-3.2 16.5-18 16.5-18l17.1-4.1 18.5.4c-7.2-1.5-18.4-2.3-18.4-2.3s-11.1.8-18.4 2.3c0 0-12.8 7.9-19.7 19.5 0 0-5.1 14.5-5.3 24.8l4.9 33.9 14.2 24.8 16.9 11.7h14.9l16.9-11.7-18 10.4-13.7-1.2z" fill="#b86934" stroke-width="none" opacity="1" stroke="none"></path></g></g><g id="svga-group-mouth-single-move" transform="matrix(1,0,0,1,0,0)"><g id="svga-group-mouth-single"><path id="SvgjsPath6562" d="m84.99 125.5 2.75 3.94 12.37-.68 12.45.84 3.02-3.87-3.73 2.46-6.81-2.5-4.93 1.46-4.57-1.35-7.7 1.93z" fill="#904539" stroke-width="none" opacity="1" transform="translate(0 2)" stroke="none"></path><path id="SvgjsPath6563" d="m89.12 131.92 1.15 2.64 10.05 2.86 10.83-3.61-10.89 2.15-9.41-2.31-1.73-1.73z" fill="#b86934" stroke-width="none" opacity="1" transform="translate(0 2)" stroke="none"></path></g></g><g id="svga-group-eyes-left-move" transform="matrix(1,0,0,1,0,0)"><g id="svga-group-eyes-left"><g id="svga-group-eyesback-left"><path id="SvgjsPath10585" d="M92.5 96.6 88 92.7S75 92 74.7 92s-6.3 4.2-6.1 4.4c.2.2 6.5 3 9 3.5 0 0 3.8 0 7.7-.8 2.8-.8 5.7-1.9 7.2-2.5z" fill="#ffffff" stroke-width="none" opacity="1"></path></g><g id="svga-group-eyesiriswrapper-left" transform="matrix(1,0,0,1,0,0)"><g id="svga-group-eyesiriscontrol-left" transform="matrix(1,0,0,1,0,0)"><g id="svga-group-eyesiris-left" transform="matrix(0.9499997000000001,0,0,0.9499997000000001,4.050024490735993,4.725028540735991)"><path id="SvgjsPath7602" d="m77 97.9-1.3-3.8 1.9-3.7 3.9-1.2 3.6 1.9 1.2 3.8-1.8 3.6-3.9 1.3z" fill="#681711" stroke-width="none" opacity="1" stroke="none"></path><path id="SvgjsPath7603" d="m81.5 89.5 3.4 1.8 1.2 3.7-1.8 3.4-3.7 1.2-3.4-1.8-1.2-3.7 1.8-3.4 3.7-1.2m0-.6-4.1 1.3-2 3.8 1.3 4.1 3.8 2 4.1-1.3 2-3.8-1.3-4.1-3.8-2z" fill="#490500" stroke-width="none" opacity="1" stroke="none"></path><path id="SvgjsPath7604" d="m82.2 91.6-2.4.1-1.6 1.7v2.3l1.7 1.6h2.4l1.6-1.7v-2.3z" fill="#000000" stroke-width="none" opacity="1"></path><path id="SvgjsPath7605" d="m77.9 91.2.9 1.1-1.2-.7.3-.4zm2.1-1v1.3l-.6-1.1.6-.2zm1.7-.2-.3 1.3-.3-1.3h.6zm1.7.9-.7.8.2-1.1.5.3zm1.5 1-1.3.8 1-1.2.3.4zm.6 1.9-1.4.1 1.2-.6.2.5zm.1 1.5-1.2-.4 1.3-.1-.1.5zm-.9 1.4-.8-.7 1.1.3-.3.4zm-.8 1.5-.7-1.3 1.1.9-.4.4zm-1.8.6-.1-1.4.6 1.2-.5.2zm-1.8.1.5-1.2.1 1.3-.6-.1zm-2-1.1.9-.9-.4 1.2-.5-.3zM77 96.2l1.1-.3-.8.8-.3-.5zm-.4-1.7 1.3.3-1.3.2v-.5zm.5-1.9.8.7-1.1-.2.3-.5z" fill="#320300" stroke-width="none" opacity="1" stroke="none"></path><path id="SvgjsPath7606" d="m78 92 2.2 2 .6-.4-1.3-2.7z" fill="#ffffff" stroke-width="none" opacity="1"></path><path id="SvgjsPath7607" d="m82.1 96.6.5 1 .9-.4-.5-1z" fill="#ffffff" stroke-width="none" opacity="1"></path></g></g></g><g id="svga-group-eyesfront-left"><path id="SvgjsPath10593" d="M67.1 89.3v11.9l7.9 8.4h11.2l7.9-8.4V89.3l-7.9-8.4H75l-7.9 8.4zm1.5 7c-.2-.2 5.9-4.4 6.1-4.4s13.3.8 13.3.8l4.5 3.9c-1.5.7-4.4 1.8-7.2 2.4-3.9.9-7.7.8-7.7.8-2.5-.4-8.7-3.3-9-3.5z" fill="#d79468" stroke-width="none" opacity="1" stroke="none"></path><path id="SvgjsPath10594" d="m93 96.8-1.2-.5-4.1-3.4-12.9-.6-4.5 3.1-1.1 1 6.3 2.8-2.9-.7-4.7-2.1 1.8-1.8 5-3 13.3.9z" fill="#000000" stroke-width="none" opacity="1" stroke="none"></path><path id="SvgjsPath10595" d="m91.5 94.7-3.8-4.5-9.7-.1-2.9 1.3 3.4-.9 9.1.2z" fill="#c87d4d" stroke-width="none" opacity="1" stroke="none"></path></g></g></g><g id="svga-group-eyes-right-move" transform="matrix(1,0,0,1,0,0)"><g id="svga-group-eyes-right"><g id="svga-group-eyesback-right"><path id="SvgjsPath10586" d="m107.5 96.6 4.5-3.9s13-.7 13.3-.7 6.3 4.2 6.1 4.4c-.2.2-6.5 3-9 3.5 0 0-3.8 0-7.7-.8-2.8-.8-5.7-1.9-7.2-2.5z" fill="#ffffff" stroke-width="none" opacity="1"></path></g><g id="svga-group-eyesiriswrapper-right" transform="matrix(1,0,0,1,0,0)"><g id="svga-group-eyesiriscontrol-right" transform="matrix(1,0,0,1,0,0)"><g id="svga-group-eyesiris-right" transform="matrix(0.9499997000000001,0,0,0.9499997000000001,5.945035937030397,4.725028540735991)"><path id="SvgjsPath7608" d="m114.9 97.9-1.2-3.8 1.8-3.7 3.9-1.2 3.6 1.9 1.3 3.8-1.9 3.6-3.9 1.3z" fill="#681711" stroke-width="none" opacity="1" stroke="none"></path><path id="SvgjsPath7609" d="m119.4 89.5 3.4 1.8L124 95l-1.8 3.4-3.7 1.2-3.4-1.8-1.2-3.7 1.8-3.4 3.7-1.2m0-.6-4.1 1.3-2 3.8 1.3 4.1 3.8 2 4.1-1.3 2-3.8-1.3-4.1-3.8-2z" fill="#490500" stroke-width="none" opacity="1" stroke="none"></path><path id="SvgjsPath7610" d="m120.1 91.6-2.4.1-1.6 1.7v2.3l1.7 1.6h2.4l1.6-1.7v-2.3z" fill="#000000" stroke-width="none" opacity="1"></path><path id="SvgjsPath7611" d="m115.9 91.2.8 1.1-1.2-.7.4-.4zm2-1v1.3l-.5-1.1.5-.2zm1.7-.2-.3 1.3-.3-1.3h.6zm1.7.9-.7.8.3-1.1.4.3zm1.5 1-1.3.8 1-1.2.3.4zm.6 1.9-1.3.1 1.1-.6.2.5zm.1 1.5-1.2-.4 1.3-.1-.1.5zm-.9 1.4-.8-.7 1.1.3-.3.4zm-.8 1.5-.7-1.3 1.1.9-.4.4zm-1.8.6-.1-1.4.6 1.2-.5.2zm-1.8.1.5-1.2.1 1.3-.6-.1zm-2-1.1.9-.9-.4 1.2-.5-.3zm-1.2-1.6 1-.3-.8.8-.2-.5zm-.5-1.7 1.3.3-1.3.2v-.5zm.5-1.9.8.7-1-.2.2-.5z" fill="#320300" stroke-width="none" opacity="1" stroke="none"></path><path id="SvgjsPath7612" d="m115.9 92 2.2 2 .6-.4-1.3-2.7z" fill="#ffffff" stroke-width="none" opacity="1"></path><path id="SvgjsPath7613" d="m120 96.6.5 1 .9-.4-.5-1z" fill="#ffffff" stroke-width="none" opacity="1"></path></g></g></g><g id="svga-group-eyesfront-right"><path id="SvgjsPath10596" d="M125 80.8h-11.2l-7.9 8.4v11.9l7.9 8.4H125l7.9-8.4V89.3l-7.9-8.5zm-2.6 19s-3.8 0-7.7-.8c-2.8-.6-5.7-1.7-7.2-2.4l4.5-3.9s13-.7 13.3-.7 6.3 4.2 6.1 4.4-6.5 3-9 3.4z" fill="#d79468" stroke-width="none" opacity="1" stroke="none"></path><path id="SvgjsPath10599" d="m107 96.8 1.2-.5 4.1-3.4 12.9-.6 4.5 3.1 1.1 1-6.3 2.8 2.9-.7 4.7-2.1-1.8-1.8-5-3-13.3.9z" fill="#000000" stroke-width="none" opacity="1" stroke="none"></path><path id="SvgjsPath10600" d="m108.5 94.7 3.8-4.5 9.7-.1 2.9 1.3-3.4-.9-9.1.2z" fill="#c87d4d" stroke-width="none" opacity="1" stroke="none"></path></g></g></g><g id="svga-group-facehighlight-single"></g><g id="svga-group-eyebrows-left-move" transform="matrix(1,0,0,1,0,0)"><g id="svga-group-eyebrows-left-rotate" transform="matrix(1,1.7453292519943295e-9,-1.7453292519943295e-9,1,1.4451326535436237e-7,-1.3849188462700113e-7)"><g id="svga-group-eyebrows-left" transform="matrix(0.9999999,0,0,0.9999999,0.000007949999996981205,0.000008420000071396316)"><path id="SvgjsPath11586" d="M92.8 80.6 91.1 86l-2.4 1-14.1-2.3-3.3 1.1-5.1 3.3s3.4-5.3 3.5-5.7c.1-.3 2.5-4.1 2.5-4.1l11.6.6 9 .7z" fill="#2a232b" stroke-width="none" opacity="1"></path><path id="SvgjsPath11587" d="m77.5 85.3-.4-.1-1.2-2.9-3.8-2.8 1.8.5 3.1 1.8c.1 0 .3 2.1.5 3.5zm2.9.4h-.2c.1-.9.1-2.4.1-2.6 0-.2.6-1.5 1.1-2.6l.3.1c-.4 1.6-.9 3.9-1.3 5.1zm4.6.8 5.6-5.6h.6c-.8 1.4-2 3.3-2.2 3.5-.2.1-1.8 1.2-3.3 2.2l-.7-.1zm.1-5.6h.2l-1.5 3.6-1.3 1.6-.4-.1 3-5.1zm-16.1 4c1.4-.5 2.6-1 2.8-1 .2-.1 1.3.5 2.2 1.1l-.8.3c-.6-.1-1-.2-1.1-.3-.1 0-1.8.3-3.5.7.1-.3.3-.5.4-.8z" fill="#1b141c" stroke-width="none" opacity="1"></path></g></g></g><g id="svga-group-eyebrows-right-move" transform="matrix(1,0,0,1,0,0)"><g id="svga-group-eyebrows-right-rotate" transform="matrix(1,1.7453292519943295e-9,-1.7453292519943295e-9,1,1.4451326535436237e-7,-2.1057397248114285e-7)"><g id="svga-group-eyebrows-right" transform="matrix(0.9999999,0,0,0.9999999,0.000012055000297550578,0.000008429999923009746)"><path id="SvgjsPath11588" d="m107.2 80.6 1.8 5.5 2.4 1 14.1-2.3 3.3 1.1 5.1 3.3s-3.4-5.3-3.5-5.7c-.1-.3-2.5-4.1-2.5-4.1l-11.6.6-9.1.6z" fill="#2a232b" stroke-width="none" opacity="1"></path><path id="SvgjsPath11589" d="m122.5 85.3.4-.1 1.2-2.9 3.8-2.8-1.8.5-3.1 1.8c-.1 0-.3 2.1-.5 3.5zm-2.9.4h.2c-.1-.9-.1-2.4-.1-2.6 0-.2-.6-1.5-1.1-2.6l-.3.1c.4 1.6.9 3.9 1.3 5.1zm-4.6.8-5.6-5.6h-.6c.8 1.4 2 3.3 2.2 3.5.2.1 1.8 1.2 3.3 2.2l.7-.1zm-.1-5.6h-.2l1.5 3.6 1.3 1.6.4-.1-3-5.1zm16.1 4c-1.4-.5-2.6-1-2.8-1-.2-.1-1.3.5-2.2 1.1l.8.3c.6-.1 1-.2 1.1-.3.1 0 1.8.3 3.5.7-.1-.3-.3-.5-.4-.8z" fill="#1b141c" stroke-width="none" opacity="1"></path></g></g></g><g id="svga-group-beardwrap" transform="matrix(0.9999999,0,0,0.9999999,0,0)"><g id="svga-group-beard-single-move" transform="matrix(1,0,0,1,0,0)"><g id="svga-group-beard-single"></g></g></g><g id="svga-group-mustache-single-move" transform="matrix(1,0,0,1,0,0)"><g id="svga-group-mustache-single"></g></g><g id="svga-group-nose-single-move" transform="matrix(1,0,0,1,0,0)"><g id="svga-group-nose-single"><path id="SvgjsPath6234" d="m102.25 118.74-4.52.04-2.04-2.71-3.77.47-1.73-3.34 3.91-7.46h11.82l3.96 7.54-1.81 3.34-3.66-.78z" fill="#d79468" stroke-width="none" opacity="1" transform="translate(0 1)" stroke="none"></path><path id="SvgjsPath6235" d="m105.92 105.74 3.52 7.45-1.56 2.88-2.69-.21.21-.43 2.8-.96-3.42.21-2.7 3.73h-4.14l-2.7-3.73-3.42-.21 2.8.96.21.43-2.7.21-1.55-2.88 3.52-7.45-4.35 7.56 2.07 3.73 3.94-.54 1.97 2.67h4.56l1.97-2.67 3.94.54 2.07-3.73z" fill="#b86934" stroke-width="none" opacity="1" transform="translate(0 1)" stroke="none"></path><path id="SvgjsPath6236" d="m93.14 108.71 2.71 4.47 7.36.12-7.42.48z" fill="#b86934" stroke-width="none" opacity="1" transform="translate(0 1)" stroke="none"></path><path id="SvgjsPath6237" d="m95.31 107.2 2.06 4.71 5.92.18 1.61-5.13z" fill="#dfa077" stroke-width="none" opacity="1" transform="translate(0 1)" stroke="none"></path></g></g><g id="svga-group-hair-front" transform="matrix(0.9999999,0,0,0.9999999,0.000009938999554037764,0.000005994499204575732)"><path id="SvgjsPath9470" d="m54.24 85.14 4.35 11.46 3.16 2.56 4.74-40.3 5.14-7.12 10.47-2.57 17.59 4.15 16.59-3.95 10.87 1.98 6.13 6.91 5.73 39.72 3.36-4.94 2.56-8.5-.59-4.94 1.19-6.91-1.58-4.75.59-7.7-2.17-4.74-.6-6.92-6.52-6.91-7.11-13.44-14.03-7.11-10.87 2.37-4.74-2.77-3.56 1.58-13.23.99-5.54 6.13-8.3 2.56-1.18 3.56-9.49 9.29-.19 11.26-2.37 7.9 1.77 2.57-3.16 7.12 1.58 5.53z" fill="#2a232b" stroke-width="none" opacity="1" stroke="none"></path><path id="SvgjsPath9471" d="M138.83 80.27c-.22-.9-4.49-22.91-4.49-22.91l-6.74-7.19-11.68-2.02-16.85 3.82-12.13-10.56 1.57-11.23 9.88-7.41 4.72 2.25 11-3.9-10.87 2.37-4.74-2.77-3.56 1.58-13.24.99-5.53 6.13-8.3 2.57-1.19 3.56-9.48 9.29L57 56.1 54.63 64l1.78 2.57-3.16 7.11 1.58 5.53-.59 5.93 4.35 11.46 3.16 2.57.36-3.05-5.72-9.77v-5.39l6.53 8.22.37-3.11-7.8-12.52 2.25-4.94 6.45 9.86.85-7.2-5.05-10.3-.9-14.38 8.09-7.86-2.25 8.09 1.56 12.05 5.14-7.11-2.88-6.51 8.54-14.38 8.98-6.29-6.51 19.99 3.82 4.96 16.11 3.8 16.6-3.95 10.87 1.98 6.13 6.92L139.02 98c-.01-.02.03-16.83-.19-17.73z" fill="#1b141c" stroke-width="none" opacity="1" stroke="none"></path><path id="SvgjsPath9472" d="m102.27 27.16-.99 10.36 13.49 10.19-11.68-11.02z" fill="#1b141c" stroke-width="none" opacity="1" stroke="none"></path><path id="SvgjsPath9473" d="m134.23 42.76.15 9.18-.47 3.32 1.74-4.43.63-6.02z" fill="#1b141c" stroke-width="none" opacity="1" stroke="none"></path><path id="SvgjsPath9474" d="M140.72 58.74c-.32.47-2.53 8.55-2.53 8.55l-1.58 2.69 2.85-2.22 2.37-8.23-1.11-.79z" fill="#1b141c" stroke-width="none" opacity="1" stroke="none"></path></g><g id="svga-group-glasses-single-move" transform="matrix(1,0,0,1,0,0)"><g id="svga-group-glasses-single" transform="matrix(0.9999999,0,0,0.9999999,0.000009999998852094905,0.000009614999768814414)"><path id="SvgjsPath11608" d="M85 80.3H74.7l-8.4 6.1-3.2 9.8 3.2 9.8 8.4 6.1H85l8.4-6.1 3.2-9.8-3.2-9.8z" fill="url(#SvgjsLinearGradient11609)" opacity="1"></path><path id="SvgjsPath11616" d="M115 80.3h10.3l8.4 6.1 3.2 9.8-3.2 9.8-8.4 6.1H115l-8.4-6.1-3.2-9.8 3.2-9.8z" fill="url(#SvgjsLinearGradient11617)" opacity="1"></path><path id="SvgjsPath11624" d="m138 92.2-1.9-1.8-1.5-4.6-8.9-6.5h-11l-8.9 6.5-1.8 5.5-1.5-.4-1.8-.9h-1.4l-1.8.9-1.5.4-1.8-5.5-8.9-6.5h-11l-8.9 6.5-1.4 4.6-2 1.8-2.3.2v4.8l2.6 1.2.7.8 2.4 7.3 8.9 6.5h11l8.9-6.5 3.4-10.4 1.7-2.6h1.4l1.7 2.6 3.4 10.4 8.9 6.5h11l8.9-6.5 2.4-7.3.7-.8 2.6-1.2v-4.8l-2.3-.2zm-45.5 13.2-7.8 5.7H75l-7.8-5.7-3-9.2 3-9.2 7.8-5.7h9.7l7.8 5.7 3 9.2-3 9.2zm40.3 0-7.8 5.7h-9.7l-7.8-5.7-3-9.2 3-9.2 7.8-5.7h9.7l7.8 5.7 3 9.2-3 9.2z" fill="#3b3b3b" stroke-width="none" opacity="1"></path></g></g></g></g></g><rect id="svga-credit-rect" width="200" height="15" x="0" y="185" fill="#ecf0f1" opacity="0.5" style="display: none;"></rect><text id="svga-credit-text" font-family="Avenir Next, Roboto, Helvetica, Arial, sans-serif" font-size="10px" text-anchor="start" font-weight="400" size="10px" anchor="start" weight="400" fill="#333333" x="33.40447998046875" y="182.60824704170227" style="display: none;"><tspan id="SvgjsTspan5415" dy="13" x="33.40447998046875">Created on AvatarMaker.com</tspan></text></g><defs id="SvgjsDefs5362"><linearGradient id="SvgjsLinearGradient11609" x1="79.8605" y1="80.2962" x2="79.8605" y2="112.0897" gradientUnits="userSpaceOnUse" class="svga-on-canvas-glasses-gradient-single-0-null"><stop id="SvgjsStop11610" stop-opacity="1" stop-color="#b4c0cf" offset="0" ></stop><stop id="SvgjsStop11611" stop-opacity="0.9374" stop-color="#abbace" offset="0.06260771" ></stop><stop id="SvgjsStop11612" stop-opacity="0.679" stop-color="#8aa3ca" offset="0.321" ></stop><stop id="SvgjsStop11613" stop-opacity="0.4305" stop-color="#7393c6" offset="0.5695" ></stop><stop id="SvgjsStop11614" stop-opacity="0.1987" stop-color="#6589c5" offset="0.8013" ></stop><stop id="SvgjsStop11615" stop-opacity="0" stop-color="#6086c4" offset="1" ></stop></linearGradient><linearGradient id="SvgjsLinearGradient11617" x1="-20.1395" y1="80.2962" x2="-20.1395" y2="112.0897" gradientTransform="matrix(-1 0 0 1 100 0)" gradientUnits="userSpaceOnUse" class="svga-on-canvas-glasses-gradient-single-1-null"><stop id="SvgjsStop11618" stop-opacity="1" stop-color="#b4c0cf" offset="0" ></stop><stop id="SvgjsStop11619" stop-opacity="0.9374" stop-color="#abbace" offset="0.06260771" ></stop><stop id="SvgjsStop11620" stop-opacity="0.679" stop-color="#8aa3ca" offset="0.321" ></stop><stop id="SvgjsStop11621" stop-opacity="0.4305" stop-color="#7393c6" offset="0.5695" ></stop><stop id="SvgjsStop11622" stop-opacity="0.1987" stop-color="#6589c5" offset="0.8013" ></stop><stop id="SvgjsStop11623" stop-opacity="0" stop-color="#6086c4" offset="1" ></stop></linearGradient></defs></svg>