<?xml version="1.0" encoding="UTF-8"?>
<svg id="Calque_1" data-name="Calque 1" xmlns="http://www.w3.org/2000/svg" viewBox="0 0 277.92 277.92">
  <defs>
    <style>
      .cls-1 {
        fill: #a1bbed;
      }

      .cls-2 {
        stroke-width: 4px;
      }

      .cls-2, .cls-3 {
        stroke: #4e74bc;
      }

      .cls-2, .cls-3, .cls-4 {
        fill: none;
        stroke-miterlimit: 10;
      }

      .cls-3, .cls-4 {
        stroke-width: 2px;
      }

      .cls-4 {
        stroke: #a1bbed;
      }

      .cls-5 {
        fill: #4e74bc;
      }
    </style>
  </defs>
  <path class="cls-2" d="m183.71,86.55c-7.36,5.14-18.06,8.58-30.24,5.94-17.22-2.93-31.97-.85-44.82,5.04-15.07,7.53-16.09,18.31-16.35,30.42,12.26-14.01,25.42-17.94,39.39-15.3,14.65.8,27.68-.84,36.72-7.02,8.74-3.95,13.97-11.75,15.3-19.08Z"/>
  <path class="cls-2" d="m103.79,157.11c-8.04-6.34-12.24-16.56-11.52-28.08"/>
  <path class="cls-2" d="m186.59,69.45c2.03,6.54,1.07,12.24-2.88,17.1"/>
  <circle class="cls-3" cx="117.02" cy="134.7" r="5.67"/>
  <ellipse class="cls-2" cx="117.11" cy="132.63" rx="8.64" ry="9.18"/>
  <path class="cls-2" d="m150.77,129.03c-5.76,2.07-11.07,7.11-13.86,15.66-1.28,8.04-.9,11.43,0,14.4,3.27,8.43,9.9,14.78,19.26,19.44,16.56,5.85,34.66,4.81,53.64,3.42-.31-6.14-.93-10.81-2.7-16.92-2.05-6.88-5.3-13.78-9.72-20.7-7.11-10.08-16.92-18.9-34.38-17.82"/>
  <path class="cls-2" d="m207.52,166.09c-6.17,2.31-19.61,2.04-29.57,1.28-10.53-.99-17.01-3.69-23.76-10.26"/>
  <path class="cls-2" d="m111.35,167.19c3.46,8.29,9.38,15.64,18,21.96,6.75,4.76,15.05,8.22,24.84,10.44,7.54.19,14.21.29,17.64,0"/>
  <path class="cls-2" d="m144.22,196.71c.93,4.14,1.77,11.22.78,15.12l-4.32,7.56"/>
  <path class="cls-2" d="m155.58,199.77c.93,4.14,1.53,10.05.54,13.95l-3.24,5.67"/>
  <path class="cls-2" d="m211.79,219.39h-112.5c-14.22.36-14.76,22.68,0,22.68h135.54"/>
  <polyline class="cls-2" points="66.71 242.07 99.29 242.07 99.29 219.39"/>
  <path class="cls-2" d="m201.71,219.39c-4.86,7.92-6.84,13.5,0,22.68"/>
  <line class="cls-4" x1="125.75" y1="227.13" x2="191.27" y2="227.13"/>
  <line class="cls-4" x1="158.51" y1="233.97" x2="191.27" y2="233.97"/>
  <circle class="cls-1" cx="49.37" cy="134.97" r="5.04"/>
  <circle class="cls-5" cx="72.53" cy="97.35" r="2.4"/>
  <circle class="cls-1" cx="125.93" cy="60.27" r="1.44"/>
  <circle class="cls-5" cx="67.49" cy="58.11" r="4.2"/>
  <circle class="cls-1" cx="212.09" cy="61.71" r="8.28"/>
  <circle class="cls-1" cx="209.04" cy="105.29" r=".91"/>
  <rect class="cls-1" x="166.67" y="56.94" width="2.55" height=".9"/>
  <polygon class="cls-5" points="147.55 31.35 151.49 33.54 147.75 35.55 145.84 39.33 143.55 35.45 139.61 33.26 143.35 31.25 145.26 27.47 147.55 31.35"/>
  <polygon class="cls-5" points="237.29 113.52 238.79 114.36 237.38 115.1 236.66 116.53 235.79 115.05 234.29 114.21 235.7 113.47 236.41 112.04 237.29 113.52"/>
  <polygon class="cls-1" points="54.25 84.09 56.91 85.56 54.39 86.91 53.1 89.47 51.56 86.85 48.91 85.37 51.42 84.02 52.71 81.47 54.25 84.09"/>
</svg>